<svg xmlns="http://www.w3.org/2000/svg" viewBox="0 0 24 24" role="img" aria-label="Instagram">
  <defs>
    <linearGradient id="instagram-gradient" x1="3" y1="21" x2="21" y2="3" gradientUnits="userSpaceOnUse">
      <stop stop-color="#FFDC80"/>
      <stop offset=".35" stop-color="#F77737"/>
      <stop offset=".68" stop-color="#E1306C"/>
      <stop offset="1" stop-color="#833AB4"/>
    </linearGradient>
  </defs>
  <path fill="url(#instagram-gradient)" d="M7.1 3h9.8A4.1 4.1 0 0 1 21 7.1v9.8a4.1 4.1 0 0 1-4.1 4.1H7.1A4.1 4.1 0 0 1 3 16.9V7.1A4.1 4.1 0 0 1 7.1 3Zm-.14 1.8A2.16 2.16 0 0 0 4.8 6.96v10.08c0 1.19.97 2.16 2.16 2.16h10.08c1.19 0 2.16-.97 2.16-2.16V6.96c0-1.19-.97-2.16-2.16-2.16H6.96ZM17.85 6.15a1.08 1.08 0 1 1 0 2.16 1.08 1.08 0 0 1 0-2.16ZM12 7.35A4.65 4.65 0 1 1 12 16.65 4.65 4.65 0 0 1 12 7.35Zm0 1.8a2.85 2.85 0 1 0 0 5.7 2.85 2.85 0 0 0 0-5.7Z"/>
</svg>
